<svg xmlns="http://www.w3.org/2000/svg" width="32.891" height="32.891" viewBox="0 0 32.891 32.891">
  <path id="Path_23" data-name="Path 23" d="M9.636,28.973H23.191v3.919h9.7v-9.7H28.973V9.636h3.919V0h-9.7V3.854H9.636V0H0V9.636H3.854V23.191H0v9.7H9.636Zm21.328-3.854v5.846H25.118V25.118h1.927v1.927h1.927V25.118ZM25.118,1.927h5.846V7.709H25.118V5.782h1.927V3.854H25.118ZM1.927,7.709V1.927H7.709V7.709H5.782V5.782H3.854V7.709ZM5.782,9.636H9.636V5.782H23.191V9.636h3.854V23.191H23.191v3.854H9.636V23.191H5.782ZM1.927,30.964V25.118H7.709v1.927H5.782v1.927H7.709v1.991Z"/>
</svg>
