<svg id="website" xmlns="http://www.w3.org/2000/svg" width="29.684" height="29.684" viewBox="0 0 29.684 29.684">
  <path id="Path_27" data-name="Path 27" d="M29.065,0H.618A.618.618,0,0,0,0,.618V29.065a.618.618,0,0,0,.618.618H29.065a.618.618,0,0,0,.618-.618V.618A.618.618,0,0,0,29.065,0ZM1.237,1.237h27.21v3.71H1.237Zm0,27.21V6.184h27.21V28.447Zm0,0"/>
  <path id="Path_28" data-name="Path 28" d="M42.668,42.668H43.9V43.9H42.668Zm0,0" transform="translate(-40.194 -40.194)"/>
  <path id="Path_29" data-name="Path 29" d="M85.332,42.668h1.237V43.9H85.332Zm0,0" transform="translate(-80.385 -40.194)"/>
  <path id="Path_30" data-name="Path 30" d="M128,42.668h1.237V43.9H128Zm0,0" transform="translate(-120.579 -40.194)"/>
  <path id="Path_31" data-name="Path 31" d="M426.668,42.668h2.474V43.9h-2.474Zm0,0" transform="translate(-401.931 -40.194)"/>
  <path id="Path_32" data-name="Path 32" d="M384,42.668h1.237V43.9H384Zm0,0" transform="translate(-361.737 -40.194)"/>
  <path id="Path_33" data-name="Path 33" d="M123.606,131.453l-8.039-3.4a.619.619,0,0,0-.482,0l-8.039,3.4a.618.618,0,0,0-.378.57v6.942a6.818,6.818,0,0,0,3.4,5.892l4.945,2.853a.618.618,0,0,0,.618,0l4.945-2.853a6.818,6.818,0,0,0,3.4-5.892v-6.942A.618.618,0,0,0,123.606,131.453Zm-.86,7.511a5.581,5.581,0,0,1-2.785,4.821l-4.636,2.675-4.636-2.675a5.581,5.581,0,0,1-2.785-4.821v-6.532l7.421-3.14,7.421,3.14Zm0,0" transform="translate(-100.484 -120.582)"/>
  <path id="Path_34" data-name="Path 34" d="M155.283,181.376l-5.566,2.268a.619.619,0,0,0-.385.573v4.537a4.822,4.822,0,0,0,2.479,4.213l3.4,1.892a.616.616,0,0,0,.6,0l3.4-1.892a4.822,4.822,0,0,0,2.479-4.213v-4.537a.619.619,0,0,0-.385-.573l-5.566-2.268A.615.615,0,0,0,155.283,181.376Zm5.18,3.257v4.121a3.585,3.585,0,0,1-1.842,3.132l-3.105,1.725-3.105-1.725a3.586,3.586,0,0,1-1.842-3.132v-4.121l4.947-2.016Zm0,0" transform="translate(-140.674 -170.817)"/>
  <path id="Path_35" data-name="Path 35" d="M217.332,251.85l-.875.875,1.855,1.855a.617.617,0,0,0,.437.181c.02,0,.04,0,.061,0a.617.617,0,0,0,.453-.272l2.474-3.71-1.029-.686-2.055,3.083Zm0,0" transform="translate(-203.908 -235.591)"/>
</svg>
